<svg width="14" height="9" viewBox="0 0 14 9" fill="none" xmlns="http://www.w3.org/2000/svg">
<path d="M5.9375 4.07812C6.66406 3.70312 7.0625 3.16406 7.0625 2.34375C7.0625 0.679686 5.82031 0.281249 4.41406 0.281249L0.500001 0.28125L0.500002 8.57812L4.50781 8.57812C6.03125 8.57812 7.4375 7.85156 7.4375 6.16406C7.4375 5.13281 6.94531 4.35937 5.9375 4.07812ZM2.30469 1.6875L4.03906 1.6875C4.69531 1.6875 5.28125 1.875 5.28125 2.64844C5.28125 3.35156 4.8125 3.63281 4.15625 3.63281L2.30469 3.63281L2.30469 1.6875ZM4.27344 7.17187L2.30469 7.17187L2.30469 4.875L4.29688 4.875C5.11719 4.875 5.60938 5.22656 5.60938 6.07031C5.60938 6.91406 5 7.17187 4.27344 7.17187ZM12.6641 1.52344L12.6641 0.703123L9.3125 0.703123L9.3125 1.52344L12.6641 1.52344ZM14 5.67187C14 3.89062 12.9453 2.39062 11.0703 2.39062C9.21875 2.39062 7.97656 3.77344 7.97656 5.57812C7.97656 7.45312 9.17188 8.74219 11.0703 8.74219C12.5 8.74219 13.4375 8.08594 13.8828 6.72656L12.4297 6.72656C12.2656 7.24219 11.6094 7.5 11.1172 7.5C10.1563 7.5 9.64063 6.9375 9.64063 5.97656L13.9766 5.97656C13.9766 5.88281 14 5.76562 14 5.67187ZM9.64063 4.92187C9.6875 4.14844 10.2266 3.65625 11 3.65625C11.8438 3.65625 12.2656 4.125 12.3359 4.92187L9.64063 4.92187Z" fill="white"/>
</svg>
