<svg width="45" height="20" viewBox="0 0 45 20" fill="none" xmlns="http://www.w3.org/2000/svg">
<path d="M0.5 15.5556L0.26157 14.5844L0.5 16.5556V15.5556ZM44.5 15.5556V16.5556L44.6843 14.5727L44.5 15.5556ZM16.3041 8.1158L16.8569 7.28251L16.3041 8.1158ZM20.0755 9.49199L20.2209 8.50261L20.0755 9.49199ZM24.2061 9.46418L24.0454 8.47718L24.2061 9.46418ZM27.798 8.1158L27.2451 7.28251L27.798 8.1158ZM32.3898 15.5556V0H30.3898V15.5556H32.3898ZM30.3898 15.5556V20H32.3898V15.5556H30.3898ZM11.7122 15.5556V20H13.7122V15.5556H11.7122ZM13.7122 15.5556V0H11.7122V15.5556H13.7122ZM11.7122 0C11.7122 2.16756 10.6596 5.83513 8.35436 9.04648L9.97908 10.2128C12.49 6.71487 13.7122 2.64725 13.7122 0H11.7122ZM8.35436 9.04648C6.57347 11.5273 3.97796 13.672 0.26157 14.5844L0.73843 16.5267C4.99419 15.4819 7.96994 13.0116 9.97908 10.2128L8.35436 9.04648ZM0.5 16.5556H9.16672V14.5556H0.5V16.5556ZM9.16672 16.5556H12.7122V14.5556H9.16672V16.5556ZM8.16672 9.62963V15.5556H10.1667V9.62963H8.16672ZM12.7122 16.5556H16.3041V14.5556H12.7122V16.5556ZM11.7122 0C11.7122 2.26671 12.1325 6.54833 15.7513 8.9491L16.8569 7.28251C14.1504 5.48697 13.7122 2.17773 13.7122 0H11.7122ZM17.3041 15.5556V8.1158H15.3041V15.5556H17.3041ZM15.7513 8.9491C16.8756 9.695 18.257 10.2355 19.9301 10.4814L20.2209 8.50261C18.8142 8.29589 17.7158 7.85234 16.8569 7.28251L15.7513 8.9491ZM19.9301 10.4814C20.5919 10.5786 21.2981 10.6296 22.051 10.6296V8.62963C21.3884 8.62963 20.7797 8.58473 20.2209 8.50261L19.9301 10.4814ZM16.3041 16.5556H20.0755V14.5556H16.3041V16.5556ZM19.0755 9.49199V15.5556H21.0755V9.49199H19.0755ZM20.0755 16.5556H24.2061V14.5556H20.0755V16.5556ZM22.051 10.6296C22.8784 10.6296 23.6493 10.568 24.3669 10.4512L24.0454 8.47718C23.4421 8.57542 22.7792 8.62963 22.051 8.62963V10.6296ZM25.2061 15.5556V9.46418H23.2061V15.5556H25.2061ZM24.3669 10.4512C25.9531 10.1929 27.2708 9.66561 28.3508 8.9491L27.2451 7.28251C26.4196 7.83019 25.3733 8.26092 24.0454 8.47718L24.3669 10.4512ZM28.3508 8.9491C31.9696 6.54833 32.3898 2.26671 32.3898 0H30.3898C30.3898 2.17773 29.9516 5.48697 27.2451 7.28251L28.3508 8.9491ZM24.2061 16.5556H27.798V14.5556H24.2061V16.5556ZM27.798 16.5556H31.3898V14.5556H27.798V16.5556ZM26.798 8.1158V15.5556H28.798V8.1158H26.798ZM31.3898 16.5556H35.1612V14.5556H31.3898V16.5556ZM35.1612 16.5556H44.5V14.5556H35.1612V16.5556ZM30.3898 0C30.3898 2.67157 31.7878 6.8036 34.3593 10.2552L35.9631 9.06025C33.5835 5.86634 32.3898 2.14324 32.3898 0H30.3898ZM34.3593 10.2552C36.5262 13.1635 39.7378 15.6802 44.3157 16.5384L44.6843 14.5727C40.6844 13.8228 37.885 11.6399 35.9631 9.06025L34.3593 10.2552ZM36.1612 15.5556V9.6577H34.1612V15.5556H36.1612Z" fill="url(#paint0_linear_224_179)"/>
<defs>
<linearGradient id="paint0_linear_224_179" x1="8.96154" y1="5.38462" x2="15.9073" y2="25.2607" gradientUnits="userSpaceOnUse">
<stop stop-color="#00AB39"/>
<stop offset="1" stop-color="#008B00"/>
</linearGradient>
</defs>
</svg>
