<svg width="30" height="29" viewBox="0 0 30 29" fill="none" xmlns="http://www.w3.org/2000/svg">
<path d="M28.5 13.8579L15.4435 0.801363C15.2109 0.56815 14.9242 0.396144 14.609 0.300697C14.2938 0.20525 13.9598 0.189332 13.6369 0.254363L3.55503 2.27072C3.36147 2.30948 3.1837 2.40465 3.04412 2.54423C2.90453 2.68382 2.80937 2.86158 2.7706 3.05515L0.754251 13.1371C0.689337 13.4599 0.705312 13.7938 0.800752 14.109C0.896193 14.4242 1.06813 14.7109 1.30125 14.9436L14.3576 28C14.5434 28.1857 14.7638 28.3331 15.0065 28.4336C15.2492 28.5341 15.5093 28.5859 15.7719 28.5859C16.0346 28.5859 16.2947 28.5342 16.5374 28.4337C16.78 28.3332 17.0005 28.1858 17.1863 28.0001L28.4999 16.6865C28.6856 16.5008 28.833 16.2803 28.9335 16.0376C29.034 15.795 29.0858 15.5349 29.0858 15.2722C29.0858 15.0095 29.0341 14.7495 28.9336 14.5068C28.833 14.2641 28.6857 14.0436 28.5 13.8579ZM8.99925 10.0001C8.70257 10.0001 8.41256 9.91212 8.16589 9.7473C7.91922 9.58247 7.72696 9.34821 7.61343 9.07412C7.49989 8.80003 7.47019 8.49843 7.52807 8.20746C7.58595 7.91649 7.72881 7.64921 7.93859 7.43943C8.14836 7.22965 8.41564 7.08679 8.70661 7.02891C8.99758 6.97104 9.29918 7.00074 9.57327 7.11427C9.84736 7.22781 10.0816 7.42006 10.2465 7.66674C10.4113 7.91341 10.4992 8.20342 10.4992 8.50009C10.4992 8.89792 10.3412 9.27945 10.0599 9.56075C9.7786 9.84206 9.39707 10.0001 8.99925 10.0001Z" fill="url(#paint0_linear_473_4)"/>
<defs>
<linearGradient id="paint0_linear_473_4" x1="6.17099" y1="7.85339" x2="21.4586" y2="27.7385" gradientUnits="userSpaceOnUse">
<stop stop-color="#00AB39"/>
<stop offset="1" stop-color="#008B00"/>
</linearGradient>
</defs>
</svg>
