<svg width="33" height="32" viewBox="0 0 33 32" fill="none" xmlns="http://www.w3.org/2000/svg">
<path d="M12.9998 14.5566C13.1518 14.4688 13.2781 14.3426 13.3658 14.1906C13.4536 14.0386 13.4998 13.8662 13.4998 13.6906V4.68282C13.4998 4.52285 13.4614 4.36522 13.3879 4.22316C13.3143 4.0811 13.2078 3.95875 13.0772 3.86639C12.9466 3.77403 12.7957 3.71435 12.6373 3.69236C12.4788 3.67037 12.3174 3.68671 12.1666 3.74001C9.24733 4.77549 6.79293 6.81788 5.2442 9.50034C3.69547 12.1828 3.15389 15.3296 3.71674 18.3754C3.7458 18.5329 3.81223 18.681 3.91044 18.8074C4.00866 18.9338 4.13579 19.0348 4.28114 19.1018C4.4265 19.1689 4.58582 19.2001 4.74573 19.1928C4.90564 19.1854 5.06146 19.1398 5.20007 19.0598L12.9998 14.5566ZM11.4998 6.19869V13.1132L5.51452 16.5688C5.50488 16.3795 5.50004 16.1899 5.5 16C5.5022 13.9725 6.06341 11.985 7.12192 10.2558C8.18042 8.52662 9.69524 7.1228 11.4998 6.19869Z" fill="url(#paint0_linear_1070_168)"/>
<path d="M27.7839 9.54987C27.7755 9.5332 27.7678 9.51636 27.7584 9.5C27.7456 9.4779 27.7314 9.45721 27.7173 9.43652C26.5713 7.47853 24.9331 5.85435 22.9653 4.72524C20.9976 3.59613 18.7687 3.00137 16.5 3C16.2348 3 15.9804 3.10536 15.7929 3.2929C15.6054 3.48043 15.5 3.73478 15.5 4V15.4227L5.60767 21.134C5.37799 21.2666 5.2104 21.485 5.14176 21.7412C5.07312 21.9974 5.10904 22.2703 5.24164 22.5C5.24585 22.5073 5.25113 22.5135 5.25549 22.5206C5.26654 22.5431 5.27751 22.5655 5.29041 22.5874C6.73634 25.0471 8.95124 26.9628 11.5936 28.0392C14.236 29.1157 17.1591 29.293 19.9122 28.5439C22.6653 27.7948 25.0955 26.1608 26.8282 23.8939C28.5608 21.6271 29.4997 18.8532 29.5 16C29.5028 13.7368 28.911 11.5125 27.7839 9.54987Z" fill="url(#paint1_linear_1070_168)"/>
<defs>
<linearGradient id="paint0_linear_1070_168" x1="5.42302" y1="7.85888" x2="13.9394" y2="15.0005" gradientUnits="userSpaceOnUse">
<stop stop-color="#00AB39"/>
<stop offset="1" stop-color="#008B00"/>
</linearGradient>
<linearGradient id="paint1_linear_1070_168" x1="9.79851" y1="10" x2="24.013" y2="27.346" gradientUnits="userSpaceOnUse">
<stop stop-color="#00AB39"/>
<stop offset="1" stop-color="#008B00"/>
</linearGradient>
</defs>
</svg>
