<svg width="64" height="64" viewBox="0 0 64 64" fill="none" xmlns="http://www.w3.org/2000/svg">
<path d="M32 18C31.4696 18 30.9609 18.2107 30.5858 18.5858C30.2107 18.9609 30 19.4696 30 20V32C30 32.0182 30.0022 32.0358 30.0027 32.0538C30.0039 32.0941 30.0052 32.1343 30.0088 32.1743C30.0115 32.2053 30.0156 32.2357 30.0198 32.2663C30.0242 32.2987 30.0286 32.331 30.0345 32.3631C30.041 32.3986 30.0491 32.4335 30.0574 32.4683C30.064 32.4953 30.0706 32.5222 30.0781 32.5489C30.0885 32.5855 30.1002 32.6213 30.1127 32.6569C30.1215 32.6823 30.1305 32.7075 30.1403 32.7324C30.1538 32.7666 30.1683 32.8001 30.1836 32.8333C30.1957 32.8598 30.2083 32.8862 30.2216 32.9122C30.2367 32.9417 30.2527 32.9706 30.2692 32.9991C30.2858 33.0279 30.3029 33.0563 30.3209 33.0843C30.3367 33.1087 30.3531 33.1326 30.37 33.1563C30.3912 33.1863 30.4131 33.2157 30.436 33.2446C30.4526 33.2654 30.4697 33.2855 30.487 33.3056C30.512 33.3345 30.5373 33.3628 30.5641 33.3903C30.5831 33.41 30.6028 33.4288 30.6225 33.4476C30.6488 33.4726 30.6753 33.4973 30.7032 33.521C30.7277 33.5418 30.753 33.5615 30.7786 33.5812C30.8033 33.6003 30.828 33.6195 30.8539 33.6376C30.8863 33.6604 30.9202 33.6814 30.9541 33.7024C30.9697 33.7119 30.984 33.7228 31 33.7321L41.3923 39.7321C41.8517 39.9973 42.3976 40.0692 42.91 39.9319C43.4223 39.7946 43.8592 39.4594 44.1244 39C44.3896 38.5406 44.4615 37.9947 44.3242 37.4824C44.1869 36.97 43.8517 36.5332 43.3923 36.268L34 30.8453V20C34 19.4696 33.7893 18.9609 33.4142 18.5858C33.0391 18.2107 32.5304 18 32 18Z" fill="url(#paint0_linear_337_1662)"/>
<path d="M48.9705 15.0294C44.4661 10.5352 38.3629 8.01117 31.9999 8.01117C25.6369 8.01117 19.5338 10.5352 15.0294 15.0294L9.95837 20.1005V14.929C9.95837 14.3985 9.74766 13.8898 9.37259 13.5147C8.99751 13.1397 8.48881 12.929 7.95837 12.929C7.42794 12.929 6.91923 13.1397 6.54416 13.5147C6.16909 13.8898 5.95837 14.3985 5.95837 14.929V24.929L5.95862 24.9345C5.95887 24.9985 5.96212 25.0624 5.96839 25.1261C5.97132 25.1564 5.97693 25.1859 5.98121 25.2157C5.98633 25.2504 5.99024 25.2852 5.99708 25.3196C6.00391 25.3537 6.01319 25.3867 6.02173 25.4201C6.02918 25.4499 6.03565 25.4798 6.04456 25.5093C6.05456 25.5423 6.0669 25.5742 6.07862 25.6064C6.08912 25.6357 6.09864 25.6651 6.1106 25.6939C6.12305 25.7241 6.1377 25.753 6.15162 25.7825C6.16578 25.8122 6.17896 25.8422 6.19459 25.8714C6.20972 25.8999 6.22706 25.9269 6.24366 25.9545C6.2605 25.9828 6.2765 26.0114 6.29493 26.039C6.3158 26.0701 6.33887 26.0994 6.36133 26.1292C6.37806 26.1515 6.39356 26.1745 6.41151 26.1963C6.4953 26.2985 6.58897 26.3922 6.69117 26.476C6.71253 26.4935 6.73511 26.5087 6.75709 26.5252C6.78724 26.548 6.8169 26.5713 6.84839 26.5924C6.87562 26.6106 6.90381 26.6263 6.93177 26.643C6.95972 26.6599 6.98731 26.6774 7.01612 26.6929C7.04481 26.7082 7.07423 26.7211 7.1034 26.7349C7.13331 26.7491 7.16285 26.764 7.19361 26.7768C7.22181 26.7884 7.25049 26.7978 7.27906 26.8081C7.31202 26.82 7.34473 26.8326 7.37842 26.8428C7.40687 26.8514 7.43567 26.8576 7.46436 26.8649C7.49879 26.8737 7.53297 26.8833 7.56811 26.8903C7.60083 26.8967 7.63379 26.9005 7.66661 26.9053C7.69836 26.9099 7.72948 26.9159 7.76171 26.919C7.81981 26.9247 7.87816 26.9272 7.93651 26.9278C7.94383 26.9279 7.95091 26.9289 7.95836 26.9289H17.9584C18.4888 26.9289 18.9975 26.7182 19.3726 26.3432C19.7476 25.9681 19.9584 25.4594 19.9584 24.9289C19.9584 24.3985 19.7476 23.8898 19.3726 23.5147C18.9975 23.1397 18.4888 22.9289 17.9584 22.9289H12.7867L17.8579 17.8578C20.655 15.0607 24.2186 13.1559 28.0983 12.3842C31.9779 11.6125 35.9993 12.0085 39.6538 13.5223C43.3083 15.036 46.4319 17.5995 48.6296 20.8885C50.8272 24.1775 52.0002 28.0443 52.0002 31.9999C52.0002 35.9556 50.8272 39.8224 48.6296 43.1114C46.4319 46.4004 43.3083 48.9638 39.6538 50.4776C35.9993 51.9914 31.9779 52.3874 28.0983 51.6157C24.2186 50.844 20.655 48.9392 17.8579 46.1421C17.6722 45.9564 17.4517 45.809 17.209 45.7085C16.9664 45.608 16.7063 45.5563 16.4436 45.5563C16.181 45.5563 15.9209 45.6081 15.6782 45.7086C15.4356 45.8091 15.2151 45.9564 15.0294 46.1421C14.8436 46.3279 14.6963 46.5484 14.5958 46.791C14.4953 47.0337 14.4436 47.2938 14.4436 47.5564C14.4436 47.8191 14.4953 48.0792 14.5958 48.3218C14.6964 48.5645 14.8437 48.785 15.0294 48.9707C19.5303 53.4716 25.6348 56.0001 32 56.0001C38.3652 56.0001 44.4697 53.4715 48.9706 48.9706C53.4714 44.4697 56 38.3652 56 32C55.9999 25.6348 53.4714 19.5303 48.9705 15.0294Z" fill="url(#paint1_linear_337_1662)"/>
<defs>
<linearGradient id="paint0_linear_337_1662" x1="32.7678" y1="23.9231" x2="44.8765" y2="34.2268" gradientUnits="userSpaceOnUse">
<stop stop-color="#00AB39"/>
<stop offset="1" stop-color="#008B00"/>
</linearGradient>
<linearGradient id="paint1_linear_337_1662" x1="15.5818" y1="20.9313" x2="41.1429" y2="55.6017" gradientUnits="userSpaceOnUse">
<stop stop-color="#00AB39"/>
<stop offset="1" stop-color="#008B00"/>
</linearGradient>
</defs>
</svg>
