<svg width="32" height="32" viewBox="0 0 32 32" fill="none" xmlns="http://www.w3.org/2000/svg">
<path d="M22.0209 12.4645H28.0209V6.46448" stroke="url(#paint0_linear_952_48)" stroke-width="2" stroke-linecap="round" stroke-linejoin="round"/>
<path d="M8.22183 8.22183C9.24328 7.20038 10.4559 6.39013 11.7905 5.83733C13.1251 5.28452 14.5555 5 16 5C17.4445 5 18.8749 5.28452 20.2095 5.83733C21.5441 6.39013 22.7567 7.20038 23.7782 8.22183L28.0208 12.4645" stroke="url(#paint1_linear_952_48)" stroke-width="2" stroke-linecap="round" stroke-linejoin="round"/>
<path d="M9.97913 19.5355H3.97913V25.5355" stroke="url(#paint2_linear_952_48)" stroke-width="2" stroke-linecap="round" stroke-linejoin="round"/>
<path d="M23.7782 23.7782C22.7567 24.7996 21.5441 25.6099 20.2095 26.1627C18.8749 26.7155 17.4445 27 16 27C14.5555 27 13.1251 26.7155 11.7905 26.1627C10.4559 25.6099 9.24327 24.7996 8.22183 23.7782L3.97919 19.5355" stroke="url(#paint3_linear_952_48)" stroke-width="2" stroke-linecap="round" stroke-linejoin="round"/>
<defs>
<linearGradient id="paint0_linear_952_48" x1="23.1747" y1="8.07986" x2="26.4078" y2="12.2853" gradientUnits="userSpaceOnUse">
<stop stop-color="#00AB39"/>
<stop offset="1" stop-color="#008B00"/>
</linearGradient>
<linearGradient id="paint1_linear_952_48" x1="12.0293" y1="7.00966" x2="14.2551" y2="14.6887" gradientUnits="userSpaceOnUse">
<stop stop-color="#00AB39"/>
<stop offset="1" stop-color="#008B00"/>
</linearGradient>
<linearGradient id="paint2_linear_952_48" x1="5.13297" y1="21.1509" x2="8.36608" y2="25.3563" gradientUnits="userSpaceOnUse">
<stop stop-color="#00AB39"/>
<stop offset="1" stop-color="#008B00"/>
</linearGradient>
<linearGradient id="paint3_linear_952_48" x1="7.78669" y1="21.5452" x2="10.0124" y2="29.2242" gradientUnits="userSpaceOnUse">
<stop stop-color="#00AB39"/>
<stop offset="1" stop-color="#008B00"/>
</linearGradient>
</defs>
</svg>
