<svg width="44" height="48" viewBox="0 0 44 48" fill="none" xmlns="http://www.w3.org/2000/svg">
<path d="M24.8288 23.9996L33.414 15.4144L33.4143 15.4141L42 6.82837C42.5594 6.26897 42.9403 5.55624 43.0947 4.78033C43.249 4.00442 43.1698 3.20016 42.8671 2.46927C42.5643 1.73837 42.0516 1.11366 41.3939 0.674137C40.7361 0.234612 39.9627 1.06591e-05 39.1716 0H4.82835C4.03724 1.06591e-05 3.26389 0.234612 2.60611 0.674137C1.94833 1.11366 1.43565 1.73837 1.13291 2.46927C0.830162 3.20016 0.750952 4.00442 0.90529 4.78033C1.05963 5.55624 1.44058 6.26897 1.99998 6.82837L19.1711 24.0004L1.99998 41.1716C1.44058 41.731 1.05963 42.4438 0.90529 43.2197C0.750952 43.9956 0.830162 44.7998 1.13291 45.5307C1.43565 46.2616 1.94833 46.8863 2.60611 47.3259C3.26389 47.7654 4.03724 48 4.82835 48H39.1716C39.9627 48 40.7361 47.7654 41.3939 47.3259C42.0516 46.8863 42.5643 46.2616 42.8671 45.5307C43.1698 44.7998 43.249 43.9956 43.0947 43.2197C42.9403 42.4438 42.5594 41.731 42 41.1716L24.8288 23.9996ZM39.1704 4.00122L33.1716 10H10.8298L4.83007 4L39.1704 4.00122ZM4.82957 43.9988L20 28.8284V34C20 34.5304 20.2107 35.0391 20.5858 35.4142C20.9608 35.7893 21.4695 36 22 36C22.5304 36 23.0391 35.7893 23.4142 35.4142C23.7893 35.0391 24 34.5304 24 34V28.8294L39.1699 44L4.82957 43.9988Z" fill="url(#paint0_linear_337_1660)"/>
<defs>
<linearGradient id="paint0_linear_337_1660" x1="8.97134" y1="12.9231" x2="35.4842" y2="43.345" gradientUnits="userSpaceOnUse">
<stop stop-color="#00AB39"/>
<stop offset="1" stop-color="#008B00"/>
</linearGradient>
</defs>
</svg>
