<svg width="52" height="52" viewBox="0 0 52 52" fill="none" xmlns="http://www.w3.org/2000/svg">
<path d="M26 0C20.8577 0 15.8308 1.52487 11.5552 4.38179C7.27949 7.23871 3.94701 11.2994 1.97913 16.0502C0.0112501 20.8011 -0.503637 26.0288 0.499579 31.0723C1.50279 36.1159 3.97905 40.7486 7.61522 44.3848C11.2514 48.0209 15.8841 50.4972 20.9276 51.5004C25.9712 52.5036 31.1989 51.9887 35.9498 50.0209C40.7006 48.053 44.7613 44.7205 47.6182 40.4448C50.4751 36.1691 52 31.1423 52 26C51.9922 19.1068 49.2504 12.4981 44.3762 7.62384C39.5019 2.74958 32.8932 0.00780194 26 0ZM29 38H28V40C28 40.5304 27.7893 41.0391 27.4142 41.4142C27.0391 41.7893 26.5304 42 26 42C25.4696 42 24.9609 41.7893 24.5858 41.4142C24.2107 41.0391 24 40.5304 24 40V38H20C19.4696 38 18.9609 37.7893 18.5858 37.4142C18.2107 37.0391 18 36.5304 18 36C18 35.4696 18.2107 34.9609 18.5858 34.5858C18.9609 34.2107 19.4696 34 20 34H29C29.7956 34 30.5587 33.6839 31.1213 33.1213C31.6839 32.5587 32 31.7956 32 31C32 30.2044 31.6839 29.4413 31.1213 28.8787C30.5587 28.3161 29.7956 28 29 28H23C21.1435 28 19.363 27.2625 18.0502 25.9497C16.7375 24.637 16 22.8565 16 21C16 19.1435 16.7375 17.363 18.0502 16.0503C19.363 14.7375 21.1435 14 23 14H24V12C24 11.4696 24.2107 10.9609 24.5858 10.5858C24.9609 10.2107 25.4696 10 26 10C26.5304 10 27.0391 10.2107 27.4142 10.5858C27.7893 10.9609 28 11.4696 28 12V14H32C32.5304 14 33.0391 14.2107 33.4142 14.5858C33.7893 14.9609 34 15.4696 34 16C34 16.5304 33.7893 17.0391 33.4142 17.4142C33.0391 17.7893 32.5304 18 32 18H23C22.2043 18 21.4413 18.3161 20.8787 18.8787C20.3161 19.4413 20 20.2044 20 21C20 21.7956 20.3161 22.5587 20.8787 23.1213C21.4413 23.6839 22.2043 24 23 24H29C30.8565 24 32.637 24.7375 33.9497 26.0503C35.2625 27.363 36 29.1435 36 31C36 32.8565 35.2625 34.637 33.9497 35.9497C32.637 37.2625 30.8565 38 29 38Z" fill="url(#paint0_linear_337_1669)"/>
<defs>
<linearGradient id="paint0_linear_337_1669" x1="9.99999" y1="14" x2="38.0202" y2="50.4469" gradientUnits="userSpaceOnUse">
<stop stop-color="#00AB39"/>
<stop offset="1" stop-color="#008B00"/>
</linearGradient>
</defs>
</svg>
