<svg width="11" height="11" viewBox="0 0 11 11" fill="none" xmlns="http://www.w3.org/2000/svg">
<path d="M9.375 0.249998L1.125 0.25C0.492188 0.25 4.83557e-07 0.765625 5.90104e-07 1.375L2.03258e-06 9.625C2.14322e-06 10.2578 0.49219 10.75 1.125 10.75L4.33594 10.75L4.33594 7.1875L2.85938 7.1875L2.85938 5.5L4.33594 5.5L4.33594 4.23437C4.33594 2.78125 5.20313 1.96094 6.51563 1.96094C7.17188 1.96094 7.82813 2.07812 7.82813 2.07812L7.82813 3.50781L7.10156 3.50781C6.375 3.50781 6.14063 3.95312 6.14063 4.42187L6.14063 5.5L7.75781 5.5L7.5 7.1875L6.14063 7.1875L6.14063 10.75L9.375 10.75C9.98438 10.75 10.5 10.2578 10.5 9.625L10.5 1.375C10.5 0.765623 9.98438 0.249998 9.375 0.249998Z" fill="white"/>
</svg>
