<svg width="25" height="25" viewBox="0 0 25 25" fill="none" xmlns="http://www.w3.org/2000/svg">
<path d="M23.8455 9.96252L13.8446 0.870537C13.4773 0.534174 12.9972 0.347622 12.4992 0.347656C12.0011 0.34769 11.5211 0.534307 11.1538 0.87072L1.15466 9.96246C0.948655 10.1501 0.784033 10.3786 0.671311 10.6334C0.558589 10.8882 0.500243 11.1637 0.5 11.4423V22.9999C0.499999 23.2625 0.551738 23.5226 0.652263 23.7653C0.752787 24.008 0.900129 24.2285 1.08587 24.4142C1.27162 24.5999 1.49212 24.7472 1.73481 24.8477C1.97749 24.9482 2.23758 24.9999 2.50025 24.9999L8.4994 24.999C8.76459 24.9989 9.01892 24.8936 9.20643 24.706C9.39394 24.5185 9.49928 24.2641 9.49927 23.999V15.999H15.4993V23.999C15.4993 24.2641 15.6046 24.5185 15.7921 24.706C15.9796 24.8936 16.2339 24.9989 16.4991 24.999L22.4998 24.9999H22.5C22.7626 24.9999 23.0227 24.9481 23.2654 24.8476C23.508 24.7471 23.7285 24.5998 23.9142 24.4141C24.0999 24.2284 24.2473 24.0079 24.3478 23.7652C24.4483 23.5226 24.5 23.2625 24.5 22.9999V11.4424C24.4997 11.1638 24.4414 10.8883 24.3287 10.6335C24.216 10.3787 24.0514 10.1502 23.8455 9.96252Z" fill="url(#paint0_linear_473_13)"/>
<defs>
<linearGradient id="paint0_linear_473_13" x1="5.11539" y1="6.98479" x2="18.4866" y2="23.917" gradientUnits="userSpaceOnUse">
<stop stop-color="#00AB39"/>
<stop offset="1" stop-color="#008B00"/>
</linearGradient>
</defs>
</svg>
