<svg width="11" height="11" viewBox="0 0 11 11" fill="none" xmlns="http://www.w3.org/2000/svg">
<path d="M2.84375 11L2.84375 3.99219L0.664063 3.99219L0.664065 11L2.84375 11ZM1.74219 3.05469C2.44531 3.05469 3.00781 2.46875 3.00781 1.76562C3.00781 1.08594 2.44531 0.523437 1.74219 0.523437C1.0625 0.523437 0.5 1.08594 0.5 1.76562C0.500001 2.46875 1.0625 3.05469 1.74219 3.05469ZM10.9766 11L11 11L11 7.15625C11 5.28125 10.5781 3.82812 8.375 3.82812C7.32031 3.82812 6.61719 4.41406 6.3125 4.95312L6.28906 4.95312L6.28906 3.99219L4.20313 3.99219L4.20313 11L6.38281 11L6.38281 7.53125C6.38281 6.61719 6.54688 5.75 7.67188 5.75C8.79688 5.75 8.82031 6.78125 8.82031 7.60156L8.82031 11L10.9766 11Z" fill="white"/>
</svg>
