<svg width="11" height="11" viewBox="0 0 11 11" fill="none" xmlns="http://www.w3.org/2000/svg">
<path fill-rule="evenodd" clip-rule="evenodd" d="M10.4648 3.33203C10.418 2.48828 10.2305 1.73828 9.62109 1.1289C9.01172 0.51953 8.26172 0.33203 7.41797 0.285155C6.55078 0.23828 3.94922 0.238281 3.08203 0.285156C2.23828 0.332031 1.51172 0.519531 0.878906 1.12891C0.269532 1.73828 0.0820316 2.48828 0.0351568 3.33203C-0.0117181 4.19922 -0.0117176 6.80078 0.0351575 7.66797C0.0820327 8.51172 0.269533 9.23828 0.878908 9.87109C1.51172 10.4805 2.23828 10.668 3.08203 10.7148C3.94922 10.7617 6.55078 10.7617 7.41797 10.7148C8.26172 10.668 9.01172 10.4805 9.6211 9.87109C10.2305 9.23828 10.418 8.51172 10.4648 7.66797C10.5117 6.80078 10.5117 4.19922 10.4648 3.33203ZM8.6836 2.69922C8.6836 2.34766 8.40235 2.06641 8.05078 2.06641C7.69922 2.06641 7.41797 2.34766 7.41797 2.69922C7.41797 3.05078 7.69922 3.33203 8.05078 3.33203C8.40235 3.33203 8.6836 3.05078 8.6836 2.69922ZM5.26172 2.79297C3.76172 2.79297 2.56641 4.01172 2.56641 5.48828C2.56641 6.98828 3.76172 8.18359 5.26172 8.18359C6.73828 8.18359 7.95703 6.98828 7.95703 5.48828C7.95703 4.01172 6.73828 2.79297 5.26172 2.79297ZM5.26953 7.28027C4.30859 7.28027 3.51172 6.50684 3.51172 5.52246C3.51172 4.56152 4.28516 3.78809 5.26953 3.78809C6.23047 3.78809 7.00391 4.56152 7.00391 5.52246C7.00391 6.50684 6.23047 7.28027 5.26953 7.28027Z" fill="white"/>
</svg>
