<svg width="27" height="26" viewBox="0 0 27 26" fill="none" xmlns="http://www.w3.org/2000/svg">
<path d="M13.5 0C10.9288 0 8.41543 0.762437 6.27759 2.1909C4.13975 3.61935 2.47351 5.64968 1.48957 8.02512C0.505633 10.4006 0.248189 13.0144 0.749797 15.5362C1.25141 18.0579 2.48953 20.3743 4.30762 22.1924C6.1257 24.0105 8.44208 25.2486 10.9638 25.7502C13.4856 26.2518 16.0995 25.9944 18.4749 25.0104C20.8503 24.0265 22.8807 22.3603 24.3091 20.2224C25.7376 18.0846 26.5 15.5712 26.5 13C26.4961 9.55338 25.1252 6.24905 22.6881 3.81192C20.251 1.37479 16.9466 0.00390097 13.5 0ZM15 19H14.5V20C14.5 20.2652 14.3946 20.5196 14.2071 20.7071C14.0196 20.8946 13.7652 21 13.5 21C13.2348 21 12.9804 20.8946 12.7929 20.7071C12.6054 20.5196 12.5 20.2652 12.5 20V19H10.5C10.2348 19 9.98044 18.8946 9.7929 18.7071C9.60536 18.5196 9.50001 18.2652 9.50001 18C9.50001 17.7348 9.60536 17.4804 9.7929 17.2929C9.98044 17.1054 10.2348 17 10.5 17H15C15.3978 17 15.7794 16.842 16.0607 16.5607C16.342 16.2794 16.5 15.8978 16.5 15.5C16.5 15.1022 16.342 14.7206 16.0607 14.4393C15.7794 14.158 15.3978 14 15 14H12C11.0717 14 10.1815 13.6313 9.52513 12.9749C8.86876 12.3185 8.50001 11.4283 8.50001 10.5C8.50001 9.57174 8.86876 8.6815 9.52513 8.02513C10.1815 7.36875 11.0717 7 12 7H12.5V6C12.5 5.73478 12.6054 5.48043 12.7929 5.29289C12.9804 5.10536 13.2348 5 13.5 5C13.7652 5 14.0196 5.10536 14.2071 5.29289C14.3946 5.48043 14.5 5.73478 14.5 6V7H16.5C16.7652 7 17.0196 7.10536 17.2071 7.29289C17.3946 7.48043 17.5 7.73478 17.5 8C17.5 8.26522 17.3946 8.51957 17.2071 8.70711C17.0196 8.89464 16.7652 9 16.5 9H12C11.6022 9 11.2206 9.15804 10.9393 9.43934C10.658 9.72064 10.5 10.1022 10.5 10.5C10.5 10.8978 10.658 11.2794 10.9393 11.5607C11.2206 11.842 11.6022 12 12 12H15C15.9283 12 16.8185 12.3687 17.4749 13.0251C18.1313 13.6815 18.5 14.5717 18.5 15.5C18.5 16.4283 18.1313 17.3185 17.4749 17.9749C16.8185 18.6313 15.9283 19 15 19Z" fill="url(#paint0_linear_473_16)"/>
<defs>
<linearGradient id="paint0_linear_473_16" x1="5.5" y1="7" x2="19.5101" y2="25.2234" gradientUnits="userSpaceOnUse">
<stop stop-color="#00AB39"/>
<stop offset="1" stop-color="#008B00"/>
</linearGradient>
</defs>
</svg>
