<svg width="42" height="54" viewBox="0 0 42 54" fill="none" xmlns="http://www.w3.org/2000/svg">
<path d="M20.9987 0.749512C15.5306 0.756 10.2883 2.93107 6.42175 6.7976C2.55521 10.6641 0.380145 15.9064 0.373657 21.3745C0.373657 39.0222 19.1237 52.3523 19.922 52.9108C20.2377 53.1313 20.6136 53.2495 20.9987 53.2495C21.3838 53.2495 21.7596 53.1313 22.0753 52.9108C22.8737 52.3523 41.6237 39.0222 41.6237 21.3745C41.6172 15.9064 39.4421 10.6641 35.5756 6.7976C31.709 2.93107 26.4668 0.755999 20.9987 0.749512ZM21 13.8752C22.4834 13.8752 23.9334 14.3151 25.1668 15.1392C26.4002 15.9633 27.3615 17.1346 27.9291 18.5051C28.4968 19.8755 28.6453 21.3835 28.3559 22.8384C28.0665 24.2932 27.3522 25.6296 26.3033 26.6785C25.2544 27.7274 23.9181 28.4417 22.4632 28.7311C21.0084 29.0205 19.5004 28.8719 18.1299 28.3043C16.7595 27.7366 15.5881 26.7753 14.764 25.542C13.9399 24.3086 13.5 22.8586 13.5 21.3752C13.5 20.3903 13.694 19.415 14.0709 18.505C14.4478 17.5951 15.0002 16.7683 15.6967 16.0718C16.3931 15.3754 17.2199 14.8229 18.1299 14.446C19.0398 14.0691 20.0151 13.8752 21 13.8752Z" fill="url(#paint0_linear_1130_167)"/>
<defs>
<linearGradient id="paint0_linear_1130_167" x1="8.30635" y1="14.8841" x2="37.5726" y2="44.7943" gradientUnits="userSpaceOnUse">
<stop stop-color="#00AB39"/>
<stop offset="1" stop-color="#008B00"/>
</linearGradient>
</defs>
</svg>
