<svg width="64" height="64" viewBox="0 0 64 64" fill="none" xmlns="http://www.w3.org/2000/svg">
<path d="M52.0004 8H12.0004C10.9399 8.00138 9.92331 8.42325 9.17346 9.1731C8.42362 9.92294 8.00175 10.9396 8.00037 12V26.666C8.00037 49.0312 26.9554 56.4473 30.7582 57.707C31.5637 57.9805 32.437 57.9805 33.2426 57.707C37.0433 56.4473 56.0004 49.0332 56.0004 26.666V12C55.999 10.9396 55.5771 9.92294 54.8273 9.1731C54.0774 8.42325 53.0608 8.00138 52.0004 8ZM44.3812 25.4473L29.7133 39.4473C29.3411 39.8021 28.8466 40 28.3324 40C27.8182 40 27.3237 39.8021 26.9515 39.4473L19.6195 32.4473C19.4292 32.266 19.2764 32.049 19.17 31.8087C19.0636 31.5683 19.0056 31.3094 18.9993 31.0466C18.993 30.7838 19.0386 30.5224 19.1334 30.2773C19.2282 30.0321 19.3704 29.8081 19.5518 29.6179C19.7332 29.4277 19.9504 29.2752 20.1908 29.169C20.4312 29.0628 20.6902 29.005 20.953 28.9989C21.2158 28.9929 21.4772 29.0387 21.7222 29.1337C21.9673 29.2287 22.1912 29.3711 22.3812 29.5527L28.3324 35.2344L41.6195 22.5527C41.8095 22.3711 42.0334 22.2287 42.2785 22.1337C42.5236 22.0387 42.7849 21.9929 43.0477 21.9989C43.3105 22.005 43.5695 22.0628 43.8099 22.169C44.0503 22.2752 44.2675 22.4277 44.4489 22.6179C44.6304 22.8081 44.7726 23.0321 44.8674 23.2773C44.9622 23.5224 45.0077 23.7838 45.0014 24.0466C44.9951 24.3094 44.9371 24.5683 44.8307 24.8087C44.7243 25.049 44.5715 25.266 44.3812 25.4473H44.3812Z" fill="url(#paint0_linear_337_1670)"/>
<defs>
<linearGradient id="paint0_linear_337_1670" x1="17.2311" y1="21.4379" x2="44.3782" y2="55.3962" gradientUnits="userSpaceOnUse">
<stop stop-color="#00AB39"/>
<stop offset="1" stop-color="#008B00"/>
</linearGradient>
</defs>
</svg>
