<svg width="64" height="64" viewBox="0 0 64 64" fill="none" xmlns="http://www.w3.org/2000/svg">
<path d="M26 4H38C38.5304 4 39.0391 3.78929 39.4142 3.41421C39.7893 3.03914 40 2.53043 40 2C40 1.46957 39.7893 0.960859 39.4142 0.585786C39.0391 0.210714 38.5304 0 38 0L26 0C25.4696 0 24.9609 0.210714 24.5858 0.585786C24.2107 0.960859 24 1.46957 24 2C24 2.53043 24.2107 3.03914 24.5858 3.41421C24.9609 3.78929 25.4696 4 26 4Z" fill="url(#paint0_linear_337_1647)"/>
<path d="M32 8C27.2532 8 22.6131 9.40758 18.6663 12.0447C14.7195 14.6819 11.6434 18.4302 9.82689 22.8156C8.01038 27.201 7.5351 32.0266 8.46115 36.6822C9.38719 41.3377 11.673 45.6141 15.0294 48.9706C18.3859 52.327 22.6623 54.6128 27.3178 55.5388C31.9734 56.4649 36.799 55.9896 41.1844 54.1731C45.5698 52.3566 49.3181 49.2805 51.9553 45.3337C54.5924 41.3869 56 36.7468 56 32C55.9928 25.637 53.4619 19.5367 48.9626 15.0374C44.4633 10.5381 38.363 8.0072 32 8ZM43.3137 23.5146L33.4143 33.4142C33.2286 33.5999 33.0081 33.7472 32.7655 33.8478C32.5228 33.9483 32.2627 34 32.0001 34C31.7374 34.0001 31.4774 33.9483 31.2347 33.8478C30.992 33.7473 30.7715 33.6 30.5858 33.4143C30.4001 33.2286 30.2528 33.0081 30.1522 32.7655C30.0517 32.5228 30 32.2627 30 32.0001C29.9999 31.7374 30.0517 31.4774 30.1522 31.2347C30.2527 30.992 30.4 30.7715 30.5857 30.5858L40.4852 20.6863C40.6709 20.5006 40.8914 20.3532 41.1341 20.2527C41.3767 20.1522 41.6368 20.1005 41.8994 20.1005C42.1621 20.1005 42.4221 20.1522 42.6648 20.2527C42.9075 20.3532 43.1279 20.5005 43.3137 20.6862C43.4994 20.8719 43.6467 21.0924 43.7472 21.3351C43.8477 21.5777 43.8995 21.8378 43.8995 22.1004C43.8995 22.3631 43.8478 22.6231 43.7473 22.8658C43.6468 23.1084 43.4994 23.3289 43.3137 23.5146H43.3137Z" fill="url(#paint1_linear_337_1647)"/>
<defs>
<linearGradient id="paint0_linear_337_1647" x1="27.0769" y1="1.07692" x2="27.9037" y2="5.37869" gradientUnits="userSpaceOnUse">
<stop stop-color="#00AB39"/>
<stop offset="1" stop-color="#008B00"/>
</linearGradient>
<linearGradient id="paint1_linear_337_1647" x1="17.2308" y1="20.9231" x2="43.0956" y2="54.5663" gradientUnits="userSpaceOnUse">
<stop stop-color="#00AB39"/>
<stop offset="1" stop-color="#008B00"/>
</linearGradient>
</defs>
</svg>
