<svg width="26" height="28" viewBox="0 0 26 28" fill="none" xmlns="http://www.w3.org/2000/svg">
<path d="M24.2839 7.54986C24.2755 7.5332 24.2678 7.51635 24.2584 7.49999C24.2456 7.4779 24.2314 7.45721 24.2173 7.43652C22.483 4.4697 19.6443 2.31051 16.3222 1.43127C13 0.552035 9.46487 1.02432 6.49004 2.74482C3.51521 4.46532 1.34287 7.29397 0.448216 10.612C-0.446434 13.93 0.00943887 17.4673 1.71611 20.4501C1.72453 20.4668 1.73221 20.4836 1.74165 20.5C1.75059 20.5155 1.76147 20.529 1.7711 20.5439C3.50119 23.5154 6.33834 25.6803 9.66126 26.5645C12.9842 27.4486 16.522 26.9799 19.5001 25.261C22.4782 23.5421 24.6537 20.7131 25.5503 17.3935C26.447 14.074 25.9916 10.5344 24.2839 7.54986ZM21.9834 7.65881L14 12.2679V3.04595C15.5852 3.19162 17.1198 3.67948 18.4981 4.47587C19.8764 5.27226 21.0655 6.35822 21.9834 7.65881ZM13 25C11.239 24.9997 9.50379 24.5763 7.94048 23.7656C6.37717 22.9548 5.03148 21.7804 4.01668 20.3412L22.9857 9.38946C23.7601 11.0653 24.1002 12.9092 23.9745 14.751C23.8489 16.5929 23.2616 18.3735 22.2668 19.9286C21.2719 21.4838 19.9016 22.7635 18.2822 23.6498C16.6627 24.5361 14.8461 25.0004 13 25Z" fill="url(#paint0_linear_1070_152)"/>
<defs>
<linearGradient id="paint0_linear_1070_152" x1="5.00003" y1="7.99941" x2="19.0121" y2="26.2233" gradientUnits="userSpaceOnUse">
<stop stop-color="#00AB39"/>
<stop offset="1" stop-color="#008B00"/>
</linearGradient>
</defs>
</svg>
