<svg width="27" height="26" viewBox="0 0 27 26" fill="none" xmlns="http://www.w3.org/2000/svg">
<path d="M23.864 15.3641C22.5795 16.6401 20.9417 17.5014 19.1624 17.8364C17.3831 18.1715 15.5442 17.965 13.8835 17.2436L7.37818 24.7751C7.36225 24.7936 7.34569 24.8114 7.3285 24.8286C6.57822 25.5781 5.561 25.999 4.50048 25.9987C3.43997 25.9985 2.42296 25.5771 1.67306 24.8272C0.923158 24.0773 0.501743 23.0603 0.501465 21.9998C0.501187 20.9392 0.922068 19.922 1.67158 19.1717C1.68879 19.1545 1.70667 19.1379 1.72504 19.1219L9.25666 12.6166C8.53304 10.9657 8.32159 9.1357 8.64968 7.36336C8.97777 5.59101 9.83029 3.95795 11.0969 2.67554C12.3635 1.39314 13.9859 0.520446 15.754 0.170419C17.5222 -0.179608 19.3547 0.00914991 21.0143 0.712259C21.1651 0.77624 21.2979 0.876263 21.401 1.00355C21.5041 1.13083 21.5744 1.28148 21.6056 1.44227C21.6369 1.60305 21.6282 1.76906 21.5804 1.9257C21.5325 2.08235 21.4469 2.22485 21.3311 2.34068L16.4643 7.20738L16.9357 9.56444L19.2927 10.0359L24.1596 5.16905C24.2754 5.05326 24.4179 4.96768 24.5745 4.91982C24.7312 4.87196 24.8972 4.86329 25.0579 4.89457C25.2187 4.92584 25.3694 4.99611 25.4966 5.0992C25.6239 5.20229 25.7239 5.33505 25.7879 5.48582C26.4924 7.13586 26.6856 8.95931 26.3427 10.7204C25.9997 12.4814 25.1362 14.0991 23.864 15.3641Z" fill="url(#paint0_linear_723_22)"/>
<defs>
<linearGradient id="paint0_linear_723_22" x1="5.50273" y1="6.99895" x2="19.5117" y2="25.2257" gradientUnits="userSpaceOnUse">
<stop stop-color="#00AB39"/>
<stop offset="1" stop-color="#008B00"/>
</linearGradient>
</defs>
</svg>
