<svg width="1079" height="999" viewBox="0 0 1079 999" fill="none" xmlns="http://www.w3.org/2000/svg">
<g opacity="0.1" clip-path="url(#clip0_848_994)">
<rect opacity="0.4" x="346.754" y="529.638" width="104" height="104" transform="rotate(-167.581 346.754 529.638)" fill="url(#paint0_linear_848_994)"/>
<rect opacity="0.4" x="713.651" y="600.257" width="84.4399" height="84.4399" transform="rotate(-167.581 713.651 600.257)" fill="url(#paint1_linear_848_994)"/>
<rect opacity="0.4" x="820.65" y="598.403" width="35.9463" height="35.9463" transform="rotate(-167.581 820.65 598.403)" fill="url(#paint2_linear_848_994)"/>
<rect x="868.307" y="560.915" width="29.7768" height="29.7768" transform="rotate(-167.581 868.307 560.915)" fill="url(#paint3_linear_848_994)"/>
<rect x="958.279" y="593.333" width="29.7768" height="29.7768" transform="rotate(-167.581 958.279 593.333)" fill="url(#paint4_linear_848_994)"/>
<rect opacity="0.4" x="446.453" y="517.756" width="36.4455" height="36.4455" transform="rotate(-167.581 446.453 517.756)" fill="url(#paint5_linear_848_994)"/>
<rect opacity="0.4" x="569.347" y="542.346" width="32.8996" height="32.8996" transform="rotate(-167.581 569.347 542.346)" fill="url(#paint6_linear_848_994)"/>
<rect x="538.355" y="490.101" width="30.2334" height="30.2334" transform="rotate(-167.581 538.355 490.101)" fill="#6EE13E"/>
<rect x="699.486" y="517.956" width="16.5789" height="16.5789" transform="rotate(-167.581 699.486 517.956)" fill="#6EE13E"/>
<rect x="779.6" y="532.692" width="13.0794" height="13.0794" transform="rotate(-167.581 779.6 532.692)" fill="#6EE13E"/>
<rect x="567.474" y="422.5" width="56.8631" height="56.8631" transform="rotate(-167.581 567.474 422.5)" fill="#6EE13E"/>
<rect opacity="0.4" x="217.428" y="497.768" width="93.1647" height="93.1647" transform="rotate(-167.581 217.428 497.768)" fill="url(#paint7_linear_848_994)"/>
<rect opacity="0.4" x="249.341" y="377.345" width="105.183" height="104.189" transform="rotate(-167.581 249.341 377.345)" fill="url(#paint8_linear_848_994)"/>
<rect opacity="0.4" x="267.844" y="225.477" width="105.183" height="104.189" transform="rotate(-167.581 267.844 225.477)" fill="url(#paint9_linear_848_994)"/>
<rect opacity="0.4" x="105.721" y="225.477" width="71.6085" height="70.9317" transform="rotate(-167.581 105.721 225.477)" fill="url(#paint10_linear_848_994)"/>
<rect opacity="0.4" x="372.494" y="401.413" width="100.095" height="99.1493" transform="rotate(-167.581 372.494 401.413)" fill="url(#paint11_linear_848_994)"/>
<rect opacity="0.4" x="497.679" y="428.133" width="99.3111" height="98.3726" transform="rotate(-167.581 497.679 428.133)" fill="url(#paint12_linear_848_994)"/>
<rect opacity="0.4" x="614.355" y="442.763" width="77.1799" height="76.4505" transform="rotate(-167.581 614.355 442.763)" fill="url(#paint13_linear_848_994)"/>
<rect opacity="0.4" x="118.802" y="341.173" width="88.9519" height="88.9519" transform="rotate(-167.581 118.802 341.173)" fill="url(#paint14_linear_848_994)"/>
<rect opacity="0.4" x="63.5479" y="591.737" width="93.1647" height="93.1647" transform="rotate(-167.581 63.5479 591.737)" fill="url(#paint15_linear_848_994)"/>
<rect opacity="0.4" x="94.0999" y="471.806" width="98.419" height="98.419" transform="rotate(-167.581 94.0999 471.806)" fill="url(#paint16_linear_848_994)"/>
<rect x="307.935" y="459.437" width="71.0487" height="71.0487" transform="rotate(-167.581 307.935 459.437)" fill="#6EE13E"/>
<rect x="145.55" y="427.071" width="76.4786" height="76.4786" transform="rotate(-167.581 145.55 427.071)" fill="#6EE13E"/>
<rect x="41.7375" y="484.434" width="65.5224" height="65.5224" transform="rotate(-167.581 41.7375 484.434)" fill="#6EE13E"/>
<rect x="116.356" y="492.187" width="47.3253" height="47.3253" transform="rotate(-167.581 116.356 492.187)" fill="#6EE13E"/>
<rect x="228.49" y="446.285" width="77.7057" height="77.7057" transform="rotate(-167.581 228.49 446.285)" fill="url(#paint17_linear_848_994)"/>
<rect x="369.633" y="445.379" width="15.9515" height="15.9515" transform="rotate(-167.581 369.633 445.379)" fill="url(#paint18_linear_848_994)"/>
<rect x="456.935" y="471.935" width="31.1628" height="31.1628" transform="rotate(-167.581 456.935 471.935)" fill="url(#paint19_linear_848_994)"/>
<rect x="615.615" y="496.414" width="13.4778" height="13.4778" transform="rotate(-167.581 615.615 496.414)" fill="url(#paint20_linear_848_994)"/>
<rect x="62.751" y="409.043" width="77.7057" height="77.7057" transform="rotate(-167.581 62.751 409.043)" fill="url(#paint21_linear_848_994)"/>
<rect x="324.84" y="373.717" width="66.1466" height="66.1466" transform="rotate(-167.581 324.84 373.717)" fill="#6EE13E"/>
<rect x="154.546" y="329.91" width="51.7109" height="51.7109" transform="rotate(-167.581 154.546 329.91)" fill="url(#paint22_linear_848_994)"/>
<rect x="159.397" y="236.988" width="32.5961" height="32.5961" transform="rotate(-167.581 159.397 236.988)" fill="url(#paint23_linear_848_994)"/>
<rect x="236.663" y="348.922" width="52.5407" height="52.5407" transform="rotate(-167.581 236.663 348.922)" fill="url(#paint24_linear_848_994)"/>
<rect x="247.94" y="265.541" width="52.5407" height="52.5407" transform="rotate(-167.581 247.94 265.541)" fill="url(#paint25_linear_848_994)"/>
<rect x="322.262" y="273.271" width="28.3402" height="28.3402" transform="rotate(-167.581 322.262 273.271)" fill="url(#paint26_linear_848_994)"/>
<rect x="407.47" y="391.695" width="66.2087" height="66.2087" transform="rotate(-167.581 407.47 391.695)" fill="url(#paint27_linear_848_994)"/>
<rect x="490.142" y="412.722" width="69.4223" height="69.4223" transform="rotate(-167.581 490.142 412.722)" fill="url(#paint28_linear_848_994)"/>
<rect x="661.654" y="441.955" width="69.4223" height="69.4223" transform="rotate(-167.581 661.654 441.955)" fill="url(#paint29_linear_848_994)"/>
<rect x="70.9602" y="311.608" width="52.5407" height="52.5407" transform="rotate(-167.581 70.9602 311.608)" fill="url(#paint30_linear_848_994)"/>
</g>
<defs>
<linearGradient id="paint0_linear_848_994" x1="366.754" y1="557.638" x2="422.795" y2="630.532" gradientUnits="userSpaceOnUse">
<stop stop-color="#00AB39"/>
<stop offset="1" stop-color="#008B00"/>
</linearGradient>
<linearGradient id="paint1_linear_848_994" x1="729.889" y1="622.99" x2="775.39" y2="682.174" gradientUnits="userSpaceOnUse">
<stop stop-color="#00AB39"/>
<stop offset="1" stop-color="#008B00"/>
</linearGradient>
<linearGradient id="paint2_linear_848_994" x1="827.563" y1="608.08" x2="846.933" y2="633.275" gradientUnits="userSpaceOnUse">
<stop stop-color="#00AB39"/>
<stop offset="1" stop-color="#008B00"/>
</linearGradient>
<linearGradient id="paint3_linear_848_994" x1="874.033" y1="568.932" x2="890.078" y2="589.803" gradientUnits="userSpaceOnUse">
<stop stop-color="#00AB39"/>
<stop offset="1" stop-color="#008B00"/>
</linearGradient>
<linearGradient id="paint4_linear_848_994" x1="964.006" y1="601.349" x2="980.051" y2="622.22" gradientUnits="userSpaceOnUse">
<stop stop-color="#00AB39"/>
<stop offset="1" stop-color="#008B00"/>
</linearGradient>
<linearGradient id="paint5_linear_848_994" x1="453.462" y1="527.568" x2="473.101" y2="553.113" gradientUnits="userSpaceOnUse">
<stop stop-color="#00AB39"/>
<stop offset="1" stop-color="#008B00"/>
</linearGradient>
<linearGradient id="paint6_linear_848_994" x1="575.674" y1="551.204" x2="593.401" y2="574.263" gradientUnits="userSpaceOnUse">
<stop stop-color="#00AB39"/>
<stop offset="1" stop-color="#008B00"/>
</linearGradient>
<linearGradient id="paint7_linear_848_994" x1="235.344" y1="522.851" x2="285.546" y2="588.15" gradientUnits="userSpaceOnUse">
<stop stop-color="#00AB39"/>
<stop offset="1" stop-color="#008B00"/>
</linearGradient>
<linearGradient id="paint8_linear_848_994" x1="269.568" y1="405.396" x2="325.571" y2="478.936" gradientUnits="userSpaceOnUse">
<stop stop-color="#00AB39"/>
<stop offset="1" stop-color="#008B00"/>
</linearGradient>
<linearGradient id="paint9_linear_848_994" x1="288.071" y1="253.528" x2="344.074" y2="327.068" gradientUnits="userSpaceOnUse">
<stop stop-color="#00AB39"/>
<stop offset="1" stop-color="#008B00"/>
</linearGradient>
<linearGradient id="paint10_linear_848_994" x1="119.492" y1="244.574" x2="157.619" y2="294.64" gradientUnits="userSpaceOnUse">
<stop stop-color="#00AB39"/>
<stop offset="1" stop-color="#008B00"/>
</linearGradient>
<linearGradient id="paint11_linear_848_994" x1="391.743" y1="428.107" x2="445.037" y2="498.09" gradientUnits="userSpaceOnUse">
<stop stop-color="#00AB39"/>
<stop offset="1" stop-color="#008B00"/>
</linearGradient>
<linearGradient id="paint12_linear_848_994" x1="516.777" y1="454.618" x2="569.654" y2="524.052" gradientUnits="userSpaceOnUse">
<stop stop-color="#00AB39"/>
<stop offset="1" stop-color="#008B00"/>
</linearGradient>
<linearGradient id="paint13_linear_848_994" x1="629.197" y1="463.346" x2="670.29" y2="517.307" gradientUnits="userSpaceOnUse">
<stop stop-color="#00AB39"/>
<stop offset="1" stop-color="#008B00"/>
</linearGradient>
<linearGradient id="paint14_linear_848_994" x1="135.908" y1="365.122" x2="183.84" y2="427.468" gradientUnits="userSpaceOnUse">
<stop stop-color="#00AB39"/>
<stop offset="1" stop-color="#008B00"/>
</linearGradient>
<linearGradient id="paint15_linear_848_994" x1="81.4641" y1="616.82" x2="131.666" y2="682.119" gradientUnits="userSpaceOnUse">
<stop stop-color="#00AB39"/>
<stop offset="1" stop-color="#008B00"/>
</linearGradient>
<linearGradient id="paint16_linear_848_994" x1="113.027" y1="498.303" x2="166.06" y2="567.285" gradientUnits="userSpaceOnUse">
<stop stop-color="#00AB39"/>
<stop offset="1" stop-color="#008B00"/>
</linearGradient>
<linearGradient id="paint17_linear_848_994" x1="243.433" y1="467.206" x2="285.305" y2="521.67" gradientUnits="userSpaceOnUse">
<stop stop-color="#00AB39"/>
<stop offset="1" stop-color="#008B00"/>
</linearGradient>
<linearGradient id="paint18_linear_848_994" x1="372.701" y1="449.674" x2="381.296" y2="460.854" gradientUnits="userSpaceOnUse">
<stop stop-color="#00AB39"/>
<stop offset="1" stop-color="#008B00"/>
</linearGradient>
<linearGradient id="paint19_linear_848_994" x1="462.928" y1="480.325" x2="479.72" y2="502.167" gradientUnits="userSpaceOnUse">
<stop stop-color="#00AB39"/>
<stop offset="1" stop-color="#008B00"/>
</linearGradient>
<linearGradient id="paint20_linear_848_994" x1="618.207" y1="500.042" x2="625.47" y2="509.489" gradientUnits="userSpaceOnUse">
<stop stop-color="#00AB39"/>
<stop offset="1" stop-color="#008B00"/>
</linearGradient>
<linearGradient id="paint21_linear_848_994" x1="77.6944" y1="429.964" x2="119.566" y2="484.428" gradientUnits="userSpaceOnUse">
<stop stop-color="#00AB39"/>
<stop offset="1" stop-color="#008B00"/>
</linearGradient>
<linearGradient id="paint22_linear_848_994" x1="164.491" y1="343.832" x2="192.355" y2="380.076" gradientUnits="userSpaceOnUse">
<stop stop-color="#00AB39"/>
<stop offset="1" stop-color="#008B00"/>
</linearGradient>
<linearGradient id="paint23_linear_848_994" x1="165.665" y1="245.764" x2="183.23" y2="268.611" gradientUnits="userSpaceOnUse">
<stop stop-color="#00AB39"/>
<stop offset="1" stop-color="#008B00"/>
</linearGradient>
<linearGradient id="paint24_linear_848_994" x1="246.767" y1="363.067" x2="275.079" y2="399.893" gradientUnits="userSpaceOnUse">
<stop stop-color="#00AB39"/>
<stop offset="1" stop-color="#008B00"/>
</linearGradient>
<linearGradient id="paint25_linear_848_994" x1="258.044" y1="279.686" x2="286.355" y2="316.512" gradientUnits="userSpaceOnUse">
<stop stop-color="#00AB39"/>
<stop offset="1" stop-color="#008B00"/>
</linearGradient>
<linearGradient id="paint26_linear_848_994" x1="327.712" y1="280.901" x2="342.984" y2="300.764" gradientUnits="userSpaceOnUse">
<stop stop-color="#00AB39"/>
<stop offset="1" stop-color="#008B00"/>
</linearGradient>
<linearGradient id="paint27_linear_848_994" x1="420.203" y1="409.521" x2="455.879" y2="455.927" gradientUnits="userSpaceOnUse">
<stop stop-color="#00AB39"/>
<stop offset="1" stop-color="#008B00"/>
</linearGradient>
<linearGradient id="paint28_linear_848_994" x1="503.492" y1="431.413" x2="540.9" y2="480.071" gradientUnits="userSpaceOnUse">
<stop stop-color="#00AB39"/>
<stop offset="1" stop-color="#008B00"/>
</linearGradient>
<linearGradient id="paint29_linear_848_994" x1="675.004" y1="460.645" x2="712.413" y2="509.303" gradientUnits="userSpaceOnUse">
<stop stop-color="#00AB39"/>
<stop offset="1" stop-color="#008B00"/>
</linearGradient>
<linearGradient id="paint30_linear_848_994" x1="81.0642" y1="325.753" x2="109.376" y2="362.579" gradientUnits="userSpaceOnUse">
<stop stop-color="#00AB39"/>
<stop offset="1" stop-color="#008B00"/>
</linearGradient>
<clipPath id="clip0_848_994">
<rect width="1122" height="557" fill="white" transform="translate(830.87 998.122) rotate(-153.581)"/>
</clipPath>
</defs>
</svg>
