<svg width="1366" height="491" viewBox="0 0 1366 491" fill="none" xmlns="http://www.w3.org/2000/svg">
<path d="M1196.97 153.21L1107.17 31.8333L956.5 32.5L859.7 255.833L763.3 33.4333L661.033 32.9L675.689 68.8333C639.226 41.4765 605.279 28.2333 559.7 28.2333C491.2 28.2333 454.08 70.9764 451.967 70.1C403.5 50 361.7 31 358.233 31C358.233 31 358.233 82.1473 358.233 144.5C349.175 119.707 338.5 102 319 82.5C293 56.5 274 48 247 37C222.5 30 211.3 27.3 183.033 27.3C154.767 27.3 141.933 30.4 119 38C83.1333 49.8667 54.0333 71.1333 33.5 99C1.63334 141.933 -8.96667 199.833 8.5 252.9C31 309 75.1098 350.45 142 365.5C162 370 192.833 371.8 219.5 367C246.167 362.2 272.233 350.6 292.5 337C324 315.862 350.467 279.767 359 251.5C359 251.5 359.033 256.767 359.033 364.5L460 365.167C460 303.5 459.5 216.5 459.5 190.5C459.5 119.787 549.364 89.1555 590.5 131C602.883 143.597 608.7 159.167 608.7 190.5C608.7 212 608.443 301.608 608.7 365.167H710.367C710.367 290.561 709.666 216.029 708.233 141.433C708.233 141.433 794 336 809.167 367.567C777.852 431.117 710.367 401.833 696.1 391.833C695.033 391.833 659.7 457.3 659.7 459.433C696.1 495.833 777.003 490.421 797.033 485.167C834.5 475.433 863.033 451.7 884.367 412.5C942.125 306.61 1030.9 81.4333 1030.9 81.4333C1030.9 81.4333 1098.5 170 1134.5 216C1125.53 225.667 1006.83 351.392 993.5 365.167H1100.9C1111.2 350.333 1287 119.5 1361.5 3C1333.61 28.6133 1196.97 153.21 1196.97 153.21ZM202.7 109.333C250.2 122.333 275.7 173.833 265.7 218.833C256.594 259.81 224.7 285.692 193.3 289.167C159.567 292.9 128.7 276.333 112.7 250.333C80.2 201.333 102.7 123.333 164.7 108.833C175.5 106.167 192.433 106.667 202.7 109.333Z" fill="#191919"/>
<path d="M1247.07 222.933C1246.4 223.867 1236.27 241.333 1224.67 261.733C1208.53 290.4 1204 299.467 1204.8 301.333C1205.47 302.667 1215.6 317.333 1227.33 333.867L1248.67 363.867L1302.93 364H1357.33L1342.27 344.267C1334 333.467 1309.87 301.867 1288.67 274C1267.6 246.133 1249.87 222.8 1249.33 222.267C1248.8 221.733 1247.87 222 1247.07 222.933Z" fill="url(#paint0_linear_1827_354)"/>
<path d="M931.672 405.912V427.44H958.528V430.752H931.672V453H928V402.6H961.696V405.912H931.672Z" fill="#191919"/>
<path d="M1007.91 453.36C1001.53 453.36 996.558 451.512 993.006 447.816C989.502 444.12 987.75 438.72 987.75 431.616V402.6H991.422V431.472C991.422 437.664 992.838 442.296 995.67 445.368C998.502 448.44 1002.61 449.976 1007.98 449.976C1013.31 449.976 1017.39 448.44 1020.22 445.368C1023.05 442.296 1024.47 437.664 1024.47 431.472V402.6H1028.14V431.616C1028.14 438.72 1026.37 444.12 1022.81 447.816C1019.26 451.512 1014.29 453.36 1007.91 453.36Z" fill="#191919"/>
<path d="M1101.08 402.6V453H1098.05L1063.71 409.224V453H1060.04V402.6H1063.13L1097.4 446.376V402.6H1101.08Z" fill="#191919"/>
<path d="M1133.44 402.6H1153.38C1158.61 402.6 1163.24 403.68 1167.28 405.84C1171.36 408 1174.52 411 1176.78 414.84C1179.04 418.632 1180.16 422.952 1180.16 427.8C1180.16 432.648 1179.04 436.992 1176.78 440.832C1174.52 444.624 1171.36 447.6 1167.28 449.76C1163.24 451.92 1158.61 453 1153.38 453H1133.44V402.6ZM1153.09 449.688C1157.75 449.688 1161.85 448.776 1165.4 446.952C1168.96 445.08 1171.69 442.488 1173.61 439.176C1175.53 435.864 1176.49 432.072 1176.49 427.8C1176.49 423.528 1175.53 419.736 1173.61 416.424C1171.69 413.112 1168.96 410.544 1165.4 408.72C1161.85 406.848 1157.75 405.912 1153.09 405.912H1137.11V449.688H1153.09Z" fill="#191919"/>
<path d="M1207.68 402.6H1211.35V453H1207.68V402.6Z" fill="#191919"/>
<path d="M1284.71 402.6V453H1281.69L1247.35 409.224V453H1243.67V402.6H1246.77L1281.04 446.376V402.6H1284.71Z" fill="#191919"/>
<path d="M1353.08 428.016H1356.6V446.88C1354.4 448.992 1351.71 450.6 1348.54 451.704C1345.42 452.808 1342.11 453.36 1338.6 453.36C1333.61 453.36 1329.1 452.256 1325.07 450.048C1321.08 447.84 1317.94 444.792 1315.64 440.904C1313.38 437.016 1312.25 432.648 1312.25 427.8C1312.25 422.952 1313.38 418.584 1315.64 414.696C1317.94 410.808 1321.08 407.76 1325.07 405.552C1329.1 403.344 1333.64 402.24 1338.68 402.24C1342.37 402.24 1345.76 402.84 1348.83 404.04C1351.95 405.192 1354.61 406.896 1356.82 409.152L1354.52 411.6C1352.4 409.488 1350.03 407.976 1347.39 407.064C1344.8 406.104 1341.92 405.624 1338.75 405.624C1334.43 405.624 1330.52 406.584 1327.01 408.504C1323.56 410.424 1320.84 413.088 1318.88 416.496C1316.91 419.856 1315.92 423.624 1315.92 427.8C1315.92 431.928 1316.91 435.696 1318.88 439.104C1320.89 442.464 1323.63 445.128 1327.08 447.096C1330.54 449.016 1334.43 449.976 1338.75 449.976C1344.51 449.976 1349.28 448.44 1353.08 445.368V428.016Z" fill="#191919"/>
<defs>
<linearGradient id="paint0_linear_1827_354" x1="1234.06" y1="325.768" x2="1309" y2="221.011" gradientUnits="userSpaceOnUse">
<stop stop-color="#00AB39"/>
<stop offset="1" stop-color="#008B00"/>
</linearGradient>
</defs>
</svg>
